<?xml version="1.0" encoding="UTF-8" standalone="no"?>
<!DOCTYPE svg PUBLIC "-//W3C//DTD SVG 1.1//EN"
 "http://www.w3.org/Graphics/SVG/1.1/DTD/svg11.dtd">
<!-- Generated by graphviz version 2.43.0 (0)
 -->
<!-- Title: G Pages: 1 -->
<svg width="610pt" height="423pt"
 viewBox="0.00 0.00 610.34 423.28" xmlns="http://www.w3.org/2000/svg" xmlns:xlink="http://www.w3.org/1999/xlink">
<g id="graph0" class="graph" transform="scale(1 1) rotate(0) translate(4 419.28)">
<title>G</title><style>.edge>path:hover{stroke-width:8}</style>
<polygon fill="white" stroke="transparent" points="-4,4 -4,-419.28 606.34,-419.28 606.34,4 -4,4"/>
<!-- minitorch -->
<g id="node1" class="node">
<title>minitorch</title><style>.edge>path:hover{stroke-width:8}</style>
<ellipse fill="#9b2626" stroke="black" cx="272.67" cy="-18" rx="37.17" ry="18"/>
<text text-anchor="middle" x="272.67" y="-15.5" font-family="Helvetica,sans-Serif" font-size="10.00" fill="#ffffff">minitorch</text>
</g>
<!-- minitorch_autodiff -->
<g id="node2" class="node">
<title>minitorch_autodiff</title><style>.edge>path:hover{stroke-width:8}</style>
<ellipse fill="#d92626" stroke="black" cx="272.67" cy="-250.07" rx="46.84" ry="21.43"/>
<text text-anchor="middle" x="272.67" y="-253.07" font-family="Helvetica,sans-Serif" font-size="10.00" fill="#ffffff">minitorch.</text>
<text text-anchor="middle" x="272.67" y="-242.07" font-family="Helvetica,sans-Serif" font-size="10.00" fill="#ffffff">autodiff</text>
</g>
<!-- minitorch_autodiff&#45;&gt;minitorch -->
<g id="edge1" class="edge">
<title>minitorch_autodiff&#45;&gt;minitorch</title><style>.edge>path:hover{stroke-width:8}</style>
<path fill="none" stroke="black" d="M317.49,-243.81C352.98,-237.43 401.61,-223.41 432.67,-192.85 472.04,-154.11 495.04,-116.02 461.67,-72 444.33,-49.13 368.02,-33.42 317.83,-25.34"/>
<polygon fill="#d92626" stroke="black" points="318.27,-21.87 307.85,-23.78 317.19,-28.78 318.27,-21.87"/>
</g>
<!-- minitorch_scalar -->
<g id="node7" class="node">
<title>minitorch_scalar</title><style>.edge>path:hover{stroke-width:8}</style>
<ellipse fill="#c82323" stroke="black" cx="187.67" cy="-171.64" rx="46.84" ry="21.43"/>
<text text-anchor="middle" x="187.67" y="-174.64" font-family="Helvetica,sans-Serif" font-size="10.00" fill="#ffffff">minitorch.</text>
<text text-anchor="middle" x="187.67" y="-163.64" font-family="Helvetica,sans-Serif" font-size="10.00" fill="#ffffff">scalar</text>
</g>
<!-- minitorch_autodiff&#45;&gt;minitorch_scalar -->
<g id="edge2" class="edge">
<title>minitorch_autodiff&#45;&gt;minitorch_scalar</title><style>.edge>path:hover{stroke-width:8}</style>
<path fill="none" stroke="black" d="M252.09,-230.57C241.13,-220.71 227.49,-208.44 215.58,-197.74"/>
<polygon fill="#d92626" stroke="black" points="217.83,-195.05 208.06,-190.97 213.15,-200.26 217.83,-195.05"/>
</g>
<!-- minitorch_scalar_functions -->
<g id="node8" class="node">
<title>minitorch_scalar_functions</title><style>.edge>path:hover{stroke-width:8}</style>
<ellipse fill="#b42d2d" stroke="black" cx="272.67" cy="-93.21" rx="67.76" ry="21.43"/>
<text text-anchor="middle" x="272.67" y="-96.21" font-family="Helvetica,sans-Serif" font-size="10.00" fill="#ffffff">minitorch.</text>
<text text-anchor="middle" x="272.67" y="-85.21" font-family="Helvetica,sans-Serif" font-size="10.00" fill="#ffffff">scalar_functions</text>
</g>
<!-- minitorch_autodiff&#45;&gt;minitorch_scalar_functions -->
<g id="edge3" class="edge">
<title>minitorch_autodiff&#45;&gt;minitorch_scalar_functions</title><style>.edge>path:hover{stroke-width:8}</style>
<path fill="none" stroke="black" d="M272.67,-228.82C272.67,-202.27 272.67,-155.46 272.67,-124.64"/>
<polygon fill="#d92626" stroke="black" points="276.17,-124.46 272.67,-114.46 269.17,-124.46 276.17,-124.46"/>
</g>
<!-- minitorch_datasets -->
<g id="node3" class="node">
<title>minitorch_datasets</title><style>.edge>path:hover{stroke-width:8}</style>
<ellipse fill="#c24747" stroke="black" cx="555.67" cy="-93.21" rx="46.84" ry="21.43"/>
<text text-anchor="middle" x="555.67" y="-96.21" font-family="Helvetica,sans-Serif" font-size="10.00" fill="#ffffff">minitorch.</text>
<text text-anchor="middle" x="555.67" y="-85.21" font-family="Helvetica,sans-Serif" font-size="10.00" fill="#ffffff">datasets</text>
</g>
<!-- minitorch_datasets&#45;&gt;minitorch -->
<g id="edge4" class="edge">
<title>minitorch_datasets&#45;&gt;minitorch</title><style>.edge>path:hover{stroke-width:8}</style>
<path fill="none" stroke="black" d="M519.38,-79.62C511.29,-76.97 502.72,-74.29 494.67,-72 433.15,-54.5 360.94,-37.99 315.99,-28.19"/>
<polygon fill="#c24747" stroke="black" points="316.51,-24.72 306,-26.02 315.03,-31.56 316.51,-24.72"/>
</g>
<!-- minitorch_module -->
<g id="node4" class="node">
<title>minitorch_module</title><style>.edge>path:hover{stroke-width:8}</style>
<ellipse fill="#ce3b3b" stroke="black" cx="46.67" cy="-171.64" rx="46.84" ry="21.43"/>
<text text-anchor="middle" x="46.67" y="-174.64" font-family="Helvetica,sans-Serif" font-size="10.00" fill="#ffffff">minitorch.</text>
<text text-anchor="middle" x="46.67" y="-163.64" font-family="Helvetica,sans-Serif" font-size="10.00" fill="#ffffff">module</text>
</g>
<!-- minitorch_module&#45;&gt;minitorch -->
<g id="edge5" class="edge">
<title>minitorch_module&#45;&gt;minitorch</title><style>.edge>path:hover{stroke-width:8}</style>
<path fill="none" stroke="black" d="M39.72,-150.5C33.6,-128.71 28.11,-94.14 45.67,-72 67.78,-44.13 166.6,-29.54 226.33,-23.14"/>
<polygon fill="#ce3b3b" stroke="black" points="226.69,-26.62 236.28,-22.11 225.97,-19.66 226.69,-26.62"/>
</g>
<!-- minitorch_optim -->
<g id="node6" class="node">
<title>minitorch_optim</title><style>.edge>path:hover{stroke-width:8}</style>
<ellipse fill="#b83d3d" stroke="black" cx="101.67" cy="-93.21" rx="46.84" ry="21.43"/>
<text text-anchor="middle" x="101.67" y="-96.21" font-family="Helvetica,sans-Serif" font-size="10.00" fill="#ffffff">minitorch.</text>
<text text-anchor="middle" x="101.67" y="-85.21" font-family="Helvetica,sans-Serif" font-size="10.00" fill="#ffffff">optim</text>
</g>
<!-- minitorch_module&#45;&gt;minitorch_optim -->
<g id="edge6" class="edge">
<title>minitorch_module&#45;&gt;minitorch_optim</title><style>.edge>path:hover{stroke-width:8}</style>
<path fill="none" stroke="black" d="M60.55,-151.35C67,-142.39 74.78,-131.57 81.84,-121.77"/>
<polygon fill="#ce3b3b" stroke="black" points="84.79,-123.65 87.79,-113.49 79.11,-119.56 84.79,-123.65"/>
</g>
<!-- minitorch_operators -->
<g id="node5" class="node">
<title>minitorch_operators</title><style>.edge>path:hover{stroke-width:8}</style>
<ellipse fill="#ce3b3b" stroke="black" cx="376.67" cy="-171.64" rx="46.84" ry="21.43"/>
<text text-anchor="middle" x="376.67" y="-174.64" font-family="Helvetica,sans-Serif" font-size="10.00" fill="#ffffff">minitorch.</text>
<text text-anchor="middle" x="376.67" y="-163.64" font-family="Helvetica,sans-Serif" font-size="10.00" fill="#ffffff">operators</text>
</g>
<!-- minitorch_operators&#45;&gt;minitorch_scalar_functions -->
<g id="edge7" class="edge">
<title>minitorch_operators&#45;&gt;minitorch_scalar_functions</title><style>.edge>path:hover{stroke-width:8}</style>
<path fill="none" stroke="black" d="M353.07,-153.3C339.32,-143.19 321.74,-130.27 306.53,-119.09"/>
<polygon fill="#ce3b3b" stroke="black" points="308.49,-116.19 298.36,-113.09 304.35,-121.83 308.49,-116.19"/>
</g>
<!-- minitorch_testing -->
<g id="node9" class="node">
<title>minitorch_testing</title><style>.edge>path:hover{stroke-width:8}</style>
<ellipse fill="#b83d3d" stroke="black" cx="405.67" cy="-93.21" rx="46.84" ry="21.43"/>
<text text-anchor="middle" x="405.67" y="-96.21" font-family="Helvetica,sans-Serif" font-size="10.00" fill="#ffffff">minitorch.</text>
<text text-anchor="middle" x="405.67" y="-85.21" font-family="Helvetica,sans-Serif" font-size="10.00" fill="#ffffff">testing</text>
</g>
<!-- minitorch_operators&#45;&gt;minitorch_testing -->
<g id="edge8" class="edge">
<title>minitorch_operators&#45;&gt;minitorch_testing</title><style>.edge>path:hover{stroke-width:8}</style>
<path fill="none" stroke="black" d="M384.29,-150.56C387.42,-142.31 391.11,-132.59 394.53,-123.57"/>
<polygon fill="#ce3b3b" stroke="black" points="397.83,-124.75 398.1,-114.16 391.28,-122.27 397.83,-124.75"/>
</g>
<!-- minitorch_optim&#45;&gt;minitorch -->
<g id="edge9" class="edge">
<title>minitorch_optim&#45;&gt;minitorch</title><style>.edge>path:hover{stroke-width:8}</style>
<path fill="none" stroke="black" d="M134.64,-78.1C163.8,-65.61 206.28,-47.43 236.39,-34.53"/>
<polygon fill="#b83d3d" stroke="black" points="237.89,-37.7 245.7,-30.55 235.13,-31.26 237.89,-37.7"/>
</g>
<!-- minitorch_scalar&#45;&gt;minitorch -->
<g id="edge10" class="edge">
<title>minitorch_scalar&#45;&gt;minitorch</title><style>.edge>path:hover{stroke-width:8}</style>
<path fill="none" stroke="black" d="M184.48,-150.25C182.23,-129.19 181.73,-96.09 195.67,-72 204.89,-56.06 221.06,-43.84 236.21,-35.17"/>
<polygon fill="#c82323" stroke="black" points="238.27,-38.04 245.44,-30.23 234.97,-31.87 238.27,-38.04"/>
</g>
<!-- minitorch_scalar&#45;&gt;minitorch_optim -->
<g id="edge11" class="edge">
<title>minitorch_scalar&#45;&gt;minitorch_optim</title><style>.edge>path:hover{stroke-width:8}</style>
<path fill="none" stroke="black" d="M167.29,-152.53C156.12,-142.61 142.12,-130.16 129.91,-119.31"/>
<polygon fill="#c82323" stroke="black" points="132,-116.49 122.2,-112.46 127.35,-121.72 132,-116.49"/>
</g>
<!-- minitorch_scalar&#45;&gt;minitorch_scalar_functions -->
<g id="edge12" class="edge">
<title>minitorch_scalar&#45;&gt;minitorch_scalar_functions</title><style>.edge>path:hover{stroke-width:8}</style>
<path fill="none" stroke="black" d="M215.89,-145.27C224.76,-137.29 234.58,-128.46 243.51,-120.43"/>
<polygon fill="#c82323" stroke="black" points="213.34,-142.85 208.25,-152.14 218.02,-148.06 213.34,-142.85"/>
<polygon fill="#c82323" stroke="black" points="246,-122.9 251.1,-113.61 241.32,-117.69 246,-122.9"/>
</g>
<!-- minitorch_scalar_functions&#45;&gt;minitorch -->
<g id="edge13" class="edge">
<title>minitorch_scalar_functions&#45;&gt;minitorch</title><style>.edge>path:hover{stroke-width:8}</style>
<path fill="none" stroke="black" d="M272.67,-71.82C272.67,-63.97 272.67,-54.86 272.67,-46.45"/>
<polygon fill="#b42d2d" stroke="black" points="276.17,-46.31 272.67,-36.31 269.17,-46.31 276.17,-46.31"/>
</g>
<!-- minitorch_testing&#45;&gt;minitorch -->
<g id="edge15" class="edge">
<title>minitorch_testing&#45;&gt;minitorch</title><style>.edge>path:hover{stroke-width:8}</style>
<path fill="none" stroke="black" d="M376.81,-76.33C355.82,-64.77 327.37,-49.11 305.51,-37.08"/>
<polygon fill="#b83d3d" stroke="black" points="307.03,-33.92 296.58,-32.16 303.66,-40.05 307.03,-33.92"/>
</g>
<!-- numpy -->
<g id="node10" class="node">
<title>numpy</title><style>.edge>path:hover{stroke-width:8}</style>
<ellipse fill="#40c040" stroke="black" cx="187.67" cy="-325.28" rx="29.37" ry="18"/>
<text text-anchor="middle" x="187.67" y="-322.78" font-family="Helvetica,sans-Serif" font-size="10.00" fill="#000000">numpy</text>
</g>
<!-- numpy&#45;&gt;minitorch_scalar -->
<g id="edge16" class="edge">
<title>numpy&#45;&gt;minitorch_scalar</title><style>.edge>path:hover{stroke-width:8}</style>
<path fill="none" stroke="black" d="M187.67,-307.18C187.67,-282.1 187.67,-234.93 187.67,-203.64"/>
<polygon fill="#40c040" stroke="black" points="191.17,-203.3 187.67,-193.3 184.17,-203.3 191.17,-203.3"/>
</g>
<!-- typing_extensions -->
<g id="node11" class="node">
<title>typing_extensions</title><style>.edge>path:hover{stroke-width:8}</style>
<ellipse fill="#5353b6" stroke="black" cx="272.67" cy="-397.28" rx="62.3" ry="18"/>
<text text-anchor="middle" x="272.67" y="-394.78" font-family="Helvetica,sans-Serif" font-size="10.00" fill="#ffffff">typing_extensions</text>
</g>
<!-- typing_extensions&#45;&gt;minitorch_autodiff -->
<g id="edge17" class="edge">
<title>typing_extensions&#45;&gt;minitorch_autodiff</title><style>.edge>path:hover{stroke-width:8}</style>
<path fill="none" stroke="black" d="M272.67,-379.05C272.67,-355.1 272.67,-311.34 272.67,-281.74"/>
<polygon fill="#5353b6" stroke="black" points="276.17,-281.54 272.67,-271.54 269.17,-281.54 276.17,-281.54"/>
</g>
</g>
</svg>
