<?xml version="1.0" encoding="UTF-8" standalone="no"?>
<!DOCTYPE svg PUBLIC "-//W3C//DTD SVG 1.1//EN"
 "http://www.w3.org/Graphics/SVG/1.1/DTD/svg11.dtd">
<!-- Generated by graphviz version 2.43.0 (0)
 -->
<!-- Title: G Pages: 1 -->
<svg width="1194pt" height="273pt"
 viewBox="0.00 0.00 1193.64 272.85" xmlns="http://www.w3.org/2000/svg" xmlns:xlink="http://www.w3.org/1999/xlink">
<g id="graph0" class="graph" transform="scale(1 1) rotate(0) translate(4 268.85)">
<title>G</title><style>.edge>path:hover{stroke-width:8}</style>
<polygon fill="white" stroke="transparent" points="-4,4 -4,-268.85 1189.64,-268.85 1189.64,4 -4,4"/>
<!-- minitorch -->
<g id="node1" class="node">
<title>minitorch</title><style>.edge>path:hover{stroke-width:8}</style>
<ellipse fill="#f91010" stroke="black" cx="560.8" cy="-171.64" rx="37.17" ry="18"/>
<text text-anchor="middle" x="560.8" y="-169.14" font-family="Helvetica,sans-Serif" font-size="10.00" fill="#ffffff">minitorch</text>
</g>
<!-- project_graph_builder -->
<g id="node6" class="node">
<title>project_graph_builder</title><style>.edge>path:hover{stroke-width:8}</style>
<ellipse fill="#49ac81" stroke="black" cx="556.8" cy="-21.21" rx="58.88" ry="21.43"/>
<text text-anchor="middle" x="556.8" y="-24.21" font-family="Helvetica,sans-Serif" font-size="10.00" fill="#000000">project.</text>
<text text-anchor="middle" x="556.8" y="-13.21" font-family="Helvetica,sans-Serif" font-size="10.00" fill="#000000">graph_builder</text>
</g>
<!-- minitorch&#45;&gt;project_graph_builder -->
<g id="edge1" class="edge">
<title>minitorch&#45;&gt;project_graph_builder</title><style>.edge>path:hover{stroke-width:8}</style>
<path fill="none" stroke="black" d="M597.44,-168.86C679.97,-163.98 876.17,-147.29 914.8,-97.43"/>
<path fill="none" stroke="black" d="M914.8,-95.43C954.92,-43.64 688.51,-57.67 624.8,-42.43 619.83,-41.24 614.69,-39.91 609.57,-38.51"/>
<polygon fill="#f91010" stroke="black" points="610.35,-35.09 599.77,-35.75 608.45,-41.83 610.35,-35.09"/>
</g>
<!-- project_math_interface -->
<g id="node7" class="node">
<title>project_math_interface</title><style>.edge>path:hover{stroke-width:8}</style>
<ellipse fill="#409671" stroke="black" cx="92.8" cy="-21.21" rx="64.19" ry="21.43"/>
<text text-anchor="middle" x="92.8" y="-24.21" font-family="Helvetica,sans-Serif" font-size="10.00" fill="#ffffff">project.</text>
<text text-anchor="middle" x="92.8" y="-13.21" font-family="Helvetica,sans-Serif" font-size="10.00" fill="#ffffff">math_interface</text>
</g>
<!-- minitorch&#45;&gt;project_math_interface -->
<g id="edge2" class="edge">
<title>minitorch&#45;&gt;project_math_interface</title><style>.edge>path:hover{stroke-width:8}</style>
<path fill="none" stroke="black" d="M535.33,-158.47C528.73,-155.59 521.58,-152.7 514.8,-150.43 448.97,-128.37 429.24,-134.54 362.8,-114.43 318.78,-101.1 309.23,-93.53 265.8,-78.43 226.57,-64.78 181.99,-50.32 147.9,-39.48"/>
<polygon fill="#f91010" stroke="black" points="148.72,-36.07 138.13,-36.38 146.61,-42.74 148.72,-36.07"/>
</g>
<!-- project_module_interface -->
<g id="node8" class="node">
<title>project_module_interface</title><style>.edge>path:hover{stroke-width:8}</style>
<ellipse fill="#439d77" stroke="black" cx="246.8" cy="-21.21" rx="72.25" ry="21.43"/>
<text text-anchor="middle" x="246.8" y="-24.21" font-family="Helvetica,sans-Serif" font-size="10.00" fill="#ffffff">project.</text>
<text text-anchor="middle" x="246.8" y="-13.21" font-family="Helvetica,sans-Serif" font-size="10.00" fill="#ffffff">module_interface</text>
</g>
<!-- minitorch&#45;&gt;project_module_interface -->
<g id="edge3" class="edge">
<title>minitorch&#45;&gt;project_module_interface</title><style>.edge>path:hover{stroke-width:8}</style>
<path fill="none" stroke="black" d="M535.1,-158.49C482.01,-133.4 359.61,-75.54 292.63,-43.88"/>
<polygon fill="#f91010" stroke="black" points="294.09,-40.7 283.56,-39.59 291.1,-47.03 294.09,-40.7"/>
</g>
<!-- project_run_manual -->
<g id="node9" class="node">
<title>project_run_manual</title><style>.edge>path:hover{stroke-width:8}</style>
<ellipse fill="#4cb387" stroke="black" cx="914.8" cy="-21.21" rx="52.15" ry="21.43"/>
<text text-anchor="middle" x="914.8" y="-24.21" font-family="Helvetica,sans-Serif" font-size="10.00" fill="#000000">project.</text>
<text text-anchor="middle" x="914.8" y="-13.21" font-family="Helvetica,sans-Serif" font-size="10.00" fill="#000000">run_manual</text>
</g>
<!-- minitorch&#45;&gt;project_run_manual -->
<g id="edge4" class="edge">
<title>minitorch&#45;&gt;project_run_manual</title><style>.edge>path:hover{stroke-width:8}</style>
<path fill="none" stroke="black" d="M914.8,-95.43C924.07,-83.46 924.71,-66.78 922.75,-52.37"/>
<polygon fill="#f91010" stroke="black" points="926.17,-51.59 920.95,-42.37 919.28,-52.83 926.17,-51.59"/>
</g>
<!-- project_run_scalar -->
<g id="node10" class="node">
<title>project_run_scalar</title><style>.edge>path:hover{stroke-width:8}</style>
<ellipse fill="#4cb387" stroke="black" cx="1032.8" cy="-21.21" rx="47.25" ry="21.43"/>
<text text-anchor="middle" x="1032.8" y="-24.21" font-family="Helvetica,sans-Serif" font-size="10.00" fill="#000000">project.</text>
<text text-anchor="middle" x="1032.8" y="-13.21" font-family="Helvetica,sans-Serif" font-size="10.00" fill="#000000">run_scalar</text>
</g>
<!-- minitorch&#45;&gt;project_run_scalar -->
<g id="edge5" class="edge">
<title>minitorch&#45;&gt;project_run_scalar</title><style>.edge>path:hover{stroke-width:8}</style>
<path fill="none" stroke="black" d="M914.8,-95.43C933.91,-70.75 963.87,-52.31 988.82,-40.11"/>
<polygon fill="#f91010" stroke="black" points="990.54,-43.16 998.1,-35.74 987.56,-36.83 990.54,-43.16"/>
</g>
<!-- project_run_torch -->
<g id="node11" class="node">
<title>project_run_torch</title><style>.edge>path:hover{stroke-width:8}</style>
<ellipse fill="#49ac81" stroke="black" cx="1141.8" cy="-21.21" rx="43.68" ry="21.43"/>
<text text-anchor="middle" x="1141.8" y="-24.21" font-family="Helvetica,sans-Serif" font-size="10.00" fill="#000000">project.</text>
<text text-anchor="middle" x="1141.8" y="-13.21" font-family="Helvetica,sans-Serif" font-size="10.00" fill="#000000">run_torch</text>
</g>
<!-- minitorch&#45;&gt;project_run_torch -->
<g id="edge6" class="edge">
<title>minitorch&#45;&gt;project_run_torch</title><style>.edge>path:hover{stroke-width:8}</style>
<path fill="none" stroke="black" d="M914.8,-95.43C964.3,-31.52 1012.32,-68.62 1088.8,-42.43 1092.11,-41.29 1095.53,-40.08 1098.95,-38.84"/>
<polygon fill="#f91010" stroke="black" points="1100.39,-42.04 1108.56,-35.29 1097.97,-35.47 1100.39,-42.04"/>
</g>
<!-- project_show_expression -->
<g id="node12" class="node">
<title>project_show_expression</title><style>.edge>path:hover{stroke-width:8}</style>
<ellipse fill="#49ac81" stroke="black" cx="408.8" cy="-21.21" rx="71.34" ry="21.43"/>
<text text-anchor="middle" x="408.8" y="-24.21" font-family="Helvetica,sans-Serif" font-size="10.00" fill="#000000">project.</text>
<text text-anchor="middle" x="408.8" y="-13.21" font-family="Helvetica,sans-Serif" font-size="10.00" fill="#000000">show_expression</text>
</g>
<!-- minitorch&#45;&gt;project_show_expression -->
<g id="edge7" class="edge">
<title>minitorch&#45;&gt;project_show_expression</title><style>.edge>path:hover{stroke-width:8}</style>
<path fill="none" stroke="black" d="M545.1,-155.31C519.33,-130.15 467.74,-79.77 435.94,-48.72"/>
<polygon fill="#f91010" stroke="black" points="438.3,-46.13 428.7,-41.65 433.41,-51.14 438.3,-46.13"/>
</g>
<!-- networkx -->
<g id="node2" class="node">
<title>networkx</title><style>.edge>path:hover{stroke-width:8}</style>
<ellipse fill="#f3d20c" stroke="black" cx="353.8" cy="-171.64" rx="36.49" ry="18"/>
<text text-anchor="middle" x="353.8" y="-169.14" font-family="Helvetica,sans-Serif" font-size="10.00" fill="#000000">networkx</text>
</g>
<!-- networkx&#45;&gt;project_graph_builder -->
<g id="edge8" class="edge">
<title>networkx&#45;&gt;project_graph_builder</title><style>.edge>path:hover{stroke-width:8}</style>
<path fill="none" stroke="black" d="M373.26,-156.41C407.96,-131.04 480.87,-77.72 523.62,-46.47"/>
<polygon fill="#f3d20c" stroke="black" points="525.74,-49.26 531.74,-40.53 521.6,-43.61 525.74,-49.26"/>
</g>
<!-- networkx&#45;&gt;project_math_interface -->
<g id="edge9" class="edge">
<title>networkx&#45;&gt;project_math_interface</title><style>.edge>path:hover{stroke-width:8}</style>
<path fill="none" stroke="black" d="M326.15,-159.81C301.42,-148.44 266.83,-127.93 251.8,-97.43"/>
</g>
<!-- networkx&#45;&gt;project_module_interface -->
<g id="edge10" class="edge">
<title>networkx&#45;&gt;project_module_interface</title><style>.edge>path:hover{stroke-width:8}</style>
<path fill="none" stroke="black" d="M339.24,-155.11C325.89,-140.6 305.8,-118.13 289.8,-97.43"/>
</g>
<!-- networkx&#45;&gt;project_show_expression -->
<g id="edge11" class="edge">
<title>networkx&#45;&gt;project_show_expression</title><style>.edge>path:hover{stroke-width:8}</style>
<path fill="none" stroke="black" d="M360.1,-153.61C369.28,-128.85 386.45,-82.52 397.75,-52.02"/>
<polygon fill="#f3d20c" stroke="black" points="401.14,-52.93 401.34,-42.34 394.58,-50.5 401.14,-52.93"/>
</g>
<!-- project_show_expression_interface -->
<g id="node13" class="node">
<title>project_show_expression_interface</title><style>.edge>path:hover{stroke-width:8}</style>
<ellipse fill="#46a47c" stroke="black" cx="738.8" cy="-21.21" rx="105.22" ry="21.43"/>
<text text-anchor="middle" x="738.8" y="-24.21" font-family="Helvetica,sans-Serif" font-size="10.00" fill="#000000">project.</text>
<text text-anchor="middle" x="738.8" y="-13.21" font-family="Helvetica,sans-Serif" font-size="10.00" fill="#000000">show_expression_interface</text>
</g>
<!-- networkx&#45;&gt;project_show_expression_interface -->
<g id="edge12" class="edge">
<title>networkx&#45;&gt;project_show_expression_interface</title><style>.edge>path:hover{stroke-width:8}</style>
<path fill="none" stroke="black" d="M379.96,-158.87C386.14,-156.1 392.7,-153.15 398.8,-150.43 451.65,-126.79 465.88,-123.06 517.8,-97.43"/>
<path fill="none" stroke="black" d="M517.8,-95.43C564.96,-72.13 621.3,-53.6 665.28,-41.01"/>
<polygon fill="#f3d20c" stroke="black" points="666.37,-44.34 675.04,-38.25 664.47,-37.6 666.37,-44.34"/>
</g>
<!-- plotly -->
<g id="node3" class="node">
<title>plotly</title><style>.edge>path:hover{stroke-width:8}</style>
<ellipse fill="#64c040" stroke="black" cx="96.8" cy="-171.64" rx="27" ry="18"/>
<text text-anchor="middle" x="96.8" y="-169.14" font-family="Helvetica,sans-Serif" font-size="10.00" fill="#000000">plotly</text>
</g>
<!-- plotly&#45;&gt;project_math_interface -->
<g id="edge13" class="edge">
<title>plotly&#45;&gt;project_math_interface</title><style>.edge>path:hover{stroke-width:8}</style>
<path fill="none" stroke="black" d="M116.42,-159.19C121.69,-156.23 127.41,-153.13 132.8,-150.43 184.54,-124.45 277.4,-149.35 251.8,-97.43"/>
<path fill="none" stroke="black" d="M251.8,-95.43C241.82,-75.2 189.96,-53.81 148.13,-39.41"/>
<polygon fill="#64c040" stroke="black" points="149.16,-36.07 138.57,-36.18 146.92,-42.7 149.16,-36.07"/>
</g>
<!-- plotly_graph_objects -->
<g id="node4" class="node">
<title>plotly_graph_objects</title><style>.edge>path:hover{stroke-width:8}</style>
<ellipse fill="#70b653" stroke="black" cx="201.8" cy="-171.64" rx="60.21" ry="21.43"/>
<text text-anchor="middle" x="201.8" y="-174.64" font-family="Helvetica,sans-Serif" font-size="10.00" fill="#000000">plotly.</text>
<text text-anchor="middle" x="201.8" y="-163.64" font-family="Helvetica,sans-Serif" font-size="10.00" fill="#000000">graph_objects</text>
</g>
<!-- plotly_graph_objects&#45;&gt;project_math_interface -->
<g id="edge14" class="edge">
<title>plotly_graph_objects&#45;&gt;project_math_interface</title><style>.edge>path:hover{stroke-width:8}</style>
<path fill="none" stroke="black" d="M227.76,-152.28C244.55,-137.99 261.6,-117.31 251.8,-97.43"/>
</g>
<!-- project_app -->
<g id="node5" class="node">
<title>project_app</title><style>.edge>path:hover{stroke-width:8}</style>
<ellipse fill="#4cb387" stroke="black" cx="41.8" cy="-96.43" rx="41.59" ry="18"/>
<text text-anchor="middle" x="41.8" y="-93.93" font-family="Helvetica,sans-Serif" font-size="10.00" fill="#000000">project.app</text>
</g>
<!-- streamlit -->
<g id="node14" class="node">
<title>streamlit</title><style>.edge>path:hover{stroke-width:8}</style>
<ellipse fill="#0c90f3" stroke="black" cx="372.8" cy="-246.85" rx="35.82" ry="18"/>
<text text-anchor="middle" x="372.8" y="-244.35" font-family="Helvetica,sans-Serif" font-size="10.00" fill="#ffffff">streamlit</text>
</g>
<!-- streamlit&#45;&gt;project_app -->
<g id="edge15" class="edge">
<title>streamlit&#45;&gt;project_app</title><style>.edge>path:hover{stroke-width:8}</style>
<path fill="none" stroke="black" d="M336.9,-244.72C263.44,-241.63 99.6,-230.58 60.8,-192.85 42.87,-175.43 39.32,-146.26 39.52,-124.74"/>
<polygon fill="#0c90f3" stroke="black" points="43.02,-124.71 39.88,-114.59 36.02,-124.46 43.02,-124.71"/>
</g>
<!-- streamlit&#45;&gt;project_math_interface -->
<g id="edge16" class="edge">
<title>streamlit&#45;&gt;project_math_interface</title><style>.edge>path:hover{stroke-width:8}</style>
<path fill="none" stroke="black" d="M351.02,-232.33C331.97,-219.35 305.03,-198 289.8,-172.64"/>
<path fill="none" stroke="black" d="M289.8,-170.64C270.91,-139.21 268.01,-130.31 251.8,-97.43"/>
</g>
<!-- streamlit&#45;&gt;project_module_interface -->
<g id="edge17" class="edge">
<title>streamlit&#45;&gt;project_module_interface</title><style>.edge>path:hover{stroke-width:8}</style>
<path fill="none" stroke="black" d="M289.8,-170.64C273.04,-142.75 309.7,-123.17 289.8,-97.43"/>
<path fill="none" stroke="black" d="M289.8,-95.43C279.24,-81.78 269.36,-65.32 261.73,-51.46"/>
<polygon fill="#0c90f3" stroke="black" points="264.65,-49.5 256.83,-42.35 258.48,-52.81 264.65,-49.5"/>
</g>
<!-- streamlit&#45;&gt;project_show_expression_interface -->
<g id="edge18" class="edge">
<title>streamlit&#45;&gt;project_show_expression_interface</title><style>.edge>path:hover{stroke-width:8}</style>
<path fill="none" stroke="black" d="M408.27,-243.07C520.36,-233.48 863.38,-197.69 928.8,-114.43 938.68,-101.85 938.37,-91.24 928.8,-78.43 915.88,-61.13 869.96,-47.28 826.5,-37.66"/>
<polygon fill="#0c90f3" stroke="black" points="827.21,-34.23 816.7,-35.55 825.74,-41.08 827.21,-34.23"/>
</g>
<!-- streamlit_ace -->
<g id="node15" class="node">
<title>streamlit_ace</title><style>.edge>path:hover{stroke-width:8}</style>
<ellipse fill="#5b31c4" stroke="black" cx="456.8" cy="-171.64" rx="48.72" ry="18"/>
<text text-anchor="middle" x="456.8" y="-169.14" font-family="Helvetica,sans-Serif" font-size="10.00" fill="#ffffff">streamlit_ace</text>
</g>
<!-- streamlit&#45;&gt;streamlit_ace -->
<g id="edge19" class="edge">
<title>streamlit&#45;&gt;streamlit_ace</title><style>.edge>path:hover{stroke-width:8}</style>
<path fill="none" stroke="black" d="M390.2,-230.68C401.9,-220.49 417.53,-206.86 430.71,-195.38"/>
<polygon fill="#0c90f3" stroke="black" points="433.3,-197.76 438.54,-188.55 428.7,-192.48 433.3,-197.76"/>
</g>
<!-- streamlit_ace&#45;&gt;project_module_interface -->
<g id="edge20" class="edge">
<title>streamlit_ace&#45;&gt;project_module_interface</title><style>.edge>path:hover{stroke-width:8}</style>
<path fill="none" stroke="black" d="M423.1,-158.47C387.29,-145.34 333.22,-124.92 313.8,-114.43 302.3,-108.21 297.79,-107.77 289.8,-97.43"/>
</g>
<!-- streamlit_ace&#45;&gt;project_show_expression_interface -->
<g id="edge21" class="edge">
<title>streamlit_ace&#45;&gt;project_show_expression_interface</title><style>.edge>path:hover{stroke-width:8}</style>
<path fill="none" stroke="black" d="M465.34,-153.72C475.27,-136.11 493.47,-109.44 517.8,-97.43"/>
</g>
<!-- torch -->
<g id="node16" class="node">
<title>torch</title><style>.edge>path:hover{stroke-width:8}</style>
<ellipse fill="#c040ad" stroke="black" cx="1141.8" cy="-171.64" rx="27" ry="18"/>
<text text-anchor="middle" x="1141.8" y="-169.14" font-family="Helvetica,sans-Serif" font-size="10.00" fill="#ffffff">torch</text>
</g>
<!-- torch&#45;&gt;project_run_torch -->
<g id="edge22" class="edge">
<title>torch&#45;&gt;project_run_torch</title><style>.edge>path:hover{stroke-width:8}</style>
<path fill="none" stroke="black" d="M1141.8,-153.61C1141.8,-129.09 1141.8,-83.43 1141.8,-52.93"/>
<polygon fill="#c040ad" stroke="black" points="1145.3,-52.83 1141.8,-42.83 1138.3,-52.83 1145.3,-52.83"/>
</g>
</g>
</svg>
